<svg version="1.1" id="Layer_1" xmlns="http://www.w3.org/2000/svg" xmlns:xlink="http://www.w3.org/1999/xlink" x="0px" y="0px"
	 width="100%" viewBox="0 0 512 512" enable-background="new 0 0 512 512" xml:space="preserve">
<path fill="#000000" opacity="1.000000" stroke="none" 
	d="
M513.000000,177.000000 
	C513.000000,289.306030 513.000000,401.112061 513.000000,512.959045 
	C342.402283,512.959045 171.804581,512.959045 1.103429,512.959045 
	C1.103429,342.444000 1.103429,171.887909 1.103429,1.165914 
	C171.666534,1.165914 342.333252,1.165914 513.000000,1.165914 
	C513.000000,59.528721 513.000000,118.014359 513.000000,177.000000 
M471.053375,406.570129 
	C471.368835,406.732635 471.684296,406.895142 472.365784,407.740967 
	C475.694244,407.909027 479.312775,408.999664 482.293671,408.062317 
	C489.583618,405.769989 496.627289,402.652191 503.657104,399.605835 
	C505.318451,398.885895 507.064423,397.403717 507.861420,395.815491 
	C510.991669,389.577484 506.188873,383.850647 498.787354,383.225067 
	C497.221069,382.781311 495.654785,382.337555 494.059692,381.116547 
	C495.715210,371.962738 497.526093,362.833710 498.991516,353.649567 
	C501.491974,337.978394 500.456360,322.245392 497.694275,306.817322 
	C493.526520,283.537964 484.565796,262.015320 470.876465,242.572464 
	C460.621307,228.007126 448.204407,215.552948 434.130096,204.720901 
	C429.025116,200.791931 423.099609,202.813019 420.307465,209.226532 
	C415.911438,213.883224 415.753143,217.436096 420.310333,221.727142 
	C424.453888,225.628677 429.121490,228.971970 433.285645,232.853622 
	C447.831360,246.412674 459.068481,262.402802 466.869995,280.653839 
	C473.586731,296.367065 477.606445,312.777588 478.032623,329.996155 
	C478.382965,344.152191 477.591034,358.155945 473.138214,371.940125 
	C471.467072,371.622406 469.795929,371.304688 467.840851,370.254669 
	C463.968536,368.779877 459.817841,368.446777 457.534210,372.232391 
	C456.149567,374.527740 455.787659,378.319458 456.620972,380.905792 
	C458.968597,388.192200 461.925690,395.319580 465.206512,402.242340 
	C466.054260,404.031219 468.976318,404.837036 470.973999,406.027100 
	C470.973999,406.027100 470.901428,406.035645 471.053375,406.570129 
M291.978180,36.975288 
	C288.309418,37.032936 284.640686,37.090584 280.043396,37.044571 
	C268.057831,37.015175 256.072296,36.985779 244.017120,36.029366 
	C244.011810,33.204845 244.274445,30.348324 243.941742,27.562910 
	C243.366211,22.744635 243.106339,17.718576 241.459610,13.241034 
	C239.363022,7.540303 231.143402,4.594284 224.193054,6.040790 
	C218.249557,7.277752 213.058777,13.729234 213.002167,19.979696 
	C212.951019,25.627115 212.924423,31.274755 211.986725,36.973877 
	C208.645905,37.044815 205.305084,37.115749 201.038666,37.064709 
	C188.716980,37.014984 176.395309,36.965260 164.014984,35.991253 
	C164.009796,30.665834 164.151886,25.335278 163.966309,20.016151 
	C163.655151,11.098166 157.054153,5.820107 146.714066,5.999341 
	C139.191040,6.129743 133.026428,12.633476 132.996384,20.449690 
	C132.975266,25.940208 132.928391,31.430630 131.991913,36.973846 
	C128.649551,37.043785 125.307198,37.113724 121.042732,37.062996 
	C116.037567,37.095753 111.032394,37.128510 105.092041,37.048252 
	C98.090126,37.006989 91.088211,36.965725 84.017502,35.999615 
	C84.012100,30.838387 84.068741,25.676165 83.986038,20.516174 
	C83.875664,13.629138 78.314957,6.780379 72.312622,5.996817 
	C62.859455,4.762773 55.733276,8.188457 54.104954,16.222431 
	C52.745346,22.930588 53.226368,30.011803 51.990963,36.974159 
	C48.649994,37.038063 45.309025,37.101967 41.040424,37.058342 
	C34.228378,37.038975 27.398243,37.327618 20.608479,36.928871 
	C10.128380,36.313396 5.272922,44.548817 5.133320,51.974705 
	C4.799287,69.742928 5.126746,87.523582 5.189025,106.198898 
	C5.125278,194.789474 5.119875,283.380157 4.927788,371.970459 
	C4.902281,383.734558 13.011577,390.198486 23.111439,390.144684 
	C76.064682,389.862701 129.020401,390.048431 182.266403,390.742249 
	C183.158676,392.829559 184.108612,394.894318 184.934540,397.007538 
	C195.934952,425.153625 213.400116,448.378326 237.752609,466.341309 
	C245.323853,471.925995 248.437286,471.225098 253.768188,462.774567 
	C258.045593,457.979126 255.615845,452.825989 252.456543,449.865295 
	C243.389313,441.368042 233.942337,433.175568 225.707642,423.917755 
	C216.972946,414.097839 210.723953,402.466217 206.988998,390.010742 
	C216.608932,390.010529 226.228851,390.010315 235.976410,390.740784 
	C241.380676,398.389923 246.143982,406.609497 252.331421,413.561584 
	C263.026184,425.577942 276.074799,434.558350 290.952148,441.103088 
	C312.694336,450.667725 335.304749,452.394409 358.249084,448.690948 
	C372.898041,446.326477 386.719086,440.667938 399.725555,431.785461 
	C409.773834,425.070374 418.490631,416.944946 426.041138,407.492371 
	C442.016357,387.492615 450.076508,364.626801 450.959686,339.175049 
	C451.498474,323.648468 448.577698,308.669434 442.957001,294.222260 
	C434.695862,272.988281 421.256927,255.576538 402.339020,243.048279 
	C392.605011,236.601974 381.513062,232.206146 371.001801,225.980377 
	C371.023285,222.350082 371.044739,218.719803 371.803589,215.282150 
	C375.010376,215.570969 378.510345,216.824905 381.365845,215.957413 
	C388.349609,213.835739 395.211670,211.087524 401.746735,207.835892 
	C404.061523,206.684143 405.287476,203.343918 407.696899,200.739731 
	C408.307800,198.173126 410.034851,195.238312 409.331207,193.105377 
	C406.671326,185.042786 403.515076,177.102356 399.891022,169.424698 
	C398.799805,167.112885 395.705383,164.605255 393.313263,164.369156 
	C390.909607,164.131897 387.530304,166.041122 385.888733,168.069855 
	C384.349213,169.972382 383.713074,173.398987 384.137756,175.908112 
	C384.743713,179.488190 382.813599,179.261154 380.899139,178.838409 
	C377.584808,178.106567 374.370087,176.923676 371.008636,175.006668 
	C370.960663,151.690353 370.912689,128.374039 370.962616,104.121536 
	C370.974396,86.648705 371.009521,69.175850 370.988373,51.703060 
	C370.977356,42.590816 365.289642,37.035984 356.027496,37.007389 
	C345.377594,36.974506 334.727631,36.969837 324.015045,36.026249 
	C323.351074,28.710161 323.426147,21.226625 321.816925,14.124717 
	C320.181885,6.908649 311.317688,5.031343 304.225006,6.105950 
	C298.224640,7.015061 293.067169,13.703127 293.003540,19.976816 
	C292.946228,25.625610 292.921417,31.274733 291.978180,36.975288 
M289.182678,498.288818 
	C289.830688,496.896912 290.478668,495.505035 291.936462,494.020447 
	C292.905701,494.151398 293.878448,494.260529 294.843597,494.416748 
	C306.308014,496.272156 317.716980,499.022339 329.251190,499.728027 
	C339.375092,500.347443 349.658356,498.890289 359.836823,497.969666 
	C376.662659,496.447876 392.391754,491.024780 407.543304,483.781616 
	C420.641541,477.520081 433.097595,470.148926 443.456177,459.902100 
	C452.204590,451.248108 460.553772,442.148315 468.546417,432.790436 
	C472.516876,428.141785 469.704559,422.003937 463.687469,420.313507 
	C459.113007,414.826233 453.179840,416.859650 450.141846,420.297119 
	C443.928833,427.327026 437.915100,434.576202 431.234985,441.140503 
	C419.723755,452.452087 406.090057,460.702209 391.243378,466.962921 
	C374.809021,473.893219 357.661957,477.625488 339.843536,477.926453 
	C333.608429,478.031799 327.313324,477.691620 321.129608,476.899292 
	C314.326599,476.027557 307.620331,474.400848 301.163361,472.377350 
	C301.472992,470.620392 301.782654,468.863434 302.761688,466.744812 
	C305.341187,463.326569 303.815552,459.790161 301.636658,457.539246 
	C299.633850,455.470215 296.546753,454.104431 292.848846,455.868774 
	C285.934875,459.167572 278.776337,461.985229 271.603149,464.694855 
	C268.469208,465.878723 266.933167,467.765381 266.117249,471.248962 
	C263.208405,475.066742 263.354919,479.136017 265.124268,483.337555 
	C267.722229,489.506683 270.358185,495.660126 272.909210,501.848572 
	C275.041046,507.020081 278.000458,509.122528 283.125702,507.881287 
	C287.501251,506.821594 289.427429,503.479584 289.182678,498.288818 
z"/>
<path fill="#FDCAAA" opacity="1.000000" stroke="none" 
	d="
M235.848785,390.010132 
	C226.228851,390.010315 216.608932,390.010529 206.261963,389.928772 
	C205.023956,389.567383 204.512955,389.287994 203.945816,388.635437 
	C197.203598,370.215485 193.150665,351.587097 194.199005,332.334686 
	C194.806702,321.174561 197.344208,310.119537 199.341095,299.189911 
	C202.115921,299.974335 204.562943,300.586090 207.324036,301.406830 
	C215.595596,302.591248 218.693314,298.775848 215.786530,291.546417 
	C213.128479,284.935547 210.693359,278.214752 207.609741,271.807220 
	C206.632721,269.777039 203.885422,268.598816 201.656982,266.820557 
	C198.501770,265.800598 195.208038,263.661163 192.852081,264.422760 
	C184.819809,267.019257 176.930038,270.268982 169.409561,274.100891 
	C167.281616,275.185120 165.567184,279.087128 165.509369,281.737091 
	C165.431244,285.317963 168.461517,287.537415 172.201340,287.870605 
	C174.463043,288.072113 176.757355,287.907684 179.958038,287.907684 
	C179.713608,289.866241 179.684464,291.902740 179.186508,293.817322 
	C172.637024,318.998810 171.927750,344.341400 177.125580,369.819489 
	C178.512360,376.617096 180.346497,383.323425 181.975266,390.071655 
	C129.020401,390.048431 76.064682,389.862701 23.111439,390.144684 
	C13.011577,390.198486 4.902281,383.734558 4.927788,371.970459 
	C5.119875,283.380157 5.125278,194.789474 5.638783,105.660515 
	C10.251796,105.080772 14.414981,105.012955 18.578314,105.002350 
	C45.731678,104.933220 72.885078,104.876488 100.015640,104.905823 
	C99.992805,104.995926 99.965424,105.179810 99.974899,105.605438 
	C100.843552,112.419739 101.302055,118.894585 102.653526,125.177353 
	C104.812363,135.213379 107.564484,145.121780 109.860138,155.348434 
	C104.467064,158.681412 101.546333,163.403244 99.585724,169.201981 
	C92.622009,175.786957 90.621170,183.750778 93.754608,191.457916 
	C97.259293,200.078201 103.520714,203.812836 113.230316,204.103027 
	C120.252678,204.312927 124.436310,199.868835 129.451721,196.035553 
	C130.794418,197.145050 131.969177,198.080139 132.782425,199.263657 
	C143.286346,214.549805 155.441437,228.317291 169.701813,240.235992 
	C190.253128,257.412537 213.143677,270.235382 238.735626,278.289093 
	C223.656006,304.733948 219.036652,332.545563 226.066376,361.856750 
	C228.371994,371.470276 232.535095,380.638367 235.848785,390.010132 
M62.305012,189.799866 
	C62.554111,189.648880 62.759689,189.452377 63.381554,188.688828 
	C69.740631,183.040878 72.504517,176.155060 70.231735,167.747284 
	C68.139343,160.006760 62.923325,155.264038 55.216705,153.412262 
	C44.769039,150.901886 35.970924,156.680328 30.481688,169.323639 
	C20.624594,179.258255 21.494722,193.104156 32.857166,201.137100 
	C42.953903,208.275208 61.177826,202.362976 61.985950,189.993805 
	C61.985950,189.993805 61.918716,189.990463 62.305012,189.799866 
M62.305508,264.710815 
	C62.526707,264.444641 62.747906,264.178467 63.306492,263.340118 
	C71.168961,255.792236 73.112755,247.136047 68.857613,238.619553 
	C64.949623,230.797867 56.721668,226.532776 47.641109,227.993179 
	C38.518982,229.460251 33.678413,235.628464 30.446306,244.298325 
	C24.022526,249.587845 22.641375,256.762207 24.453835,264.179657 
	C26.367620,272.011810 31.962505,277.014099 39.999657,278.753754 
	C49.610531,280.834045 60.974865,273.463287 61.933243,264.840942 
	C61.933243,264.840942 61.837135,264.948029 62.305508,264.710815 
M131.503937,263.760132 
	C145.111542,253.103485 140.610825,233.338257 125.755547,228.566589 
	C114.442741,224.932800 104.170708,231.052216 99.290466,244.361023 
	C92.754799,249.673798 91.335182,256.577454 93.106461,264.435028 
	C94.922462,272.491028 103.974991,279.126831 112.893837,278.997070 
	C121.789139,278.867676 129.175354,272.852295 131.503937,263.760132 
M62.602520,338.729523 
	C63.674786,337.690948 64.824043,336.720093 65.806778,335.602783 
	C72.055504,328.498322 72.723801,319.168396 67.600563,311.216949 
	C62.862324,303.863037 53.403893,300.408661 44.940563,303.232513 
	C36.934799,305.903687 32.821602,312.067963 30.169426,320.079803 
	C28.847109,321.290894 27.169529,322.281494 26.259190,323.748291 
	C19.548851,334.560547 26.490911,350.388519 38.963352,352.956024 
	C50.167229,355.262390 60.747452,348.947540 62.602520,338.729523 
M99.137222,319.096191 
	C92.924843,323.912933 90.803444,332.701813 93.851692,340.993835 
	C96.577087,348.407593 105.669296,354.721680 112.840843,353.738403 
	C121.470879,352.555115 129.069717,349.133667 131.442551,338.504700 
	C138.168930,332.701996 141.367859,325.653351 138.786743,316.763306 
	C136.415863,308.597412 130.746719,303.984161 122.512032,302.410919 
	C112.576767,300.512848 103.910934,306.834198 99.137222,319.096191 
z"/>
<path fill="#FEDFC5" opacity="1.000000" stroke="none" 
	d="
M238.833557,277.962494 
	C213.143677,270.235382 190.253128,257.412537 169.701813,240.235992 
	C155.441437,228.317291 143.286346,214.549805 132.782425,199.263657 
	C131.969177,198.080139 130.794418,197.145050 129.440979,195.665726 
	C129.096191,194.495682 129.098099,193.754410 129.432297,192.912598 
	C130.153976,191.786728 130.543365,190.761414 131.115753,189.467926 
	C143.673309,179.938461 141.761810,162.382599 129.263275,155.410477 
	C122.951469,151.889526 116.510880,152.515518 110.065773,155.084137 
	C107.564484,145.121780 104.812363,135.213379 102.653526,125.177353 
	C101.302055,118.894585 100.843552,112.419739 100.440094,105.531174 
	C190.885452,105.040092 280.875092,105.048912 370.864716,105.057732 
	C370.912689,128.374039 370.960663,151.690353 370.819397,175.731232 
	C369.818237,176.398773 368.991028,176.422668 368.196625,176.272858 
	C351.585632,173.140320 334.849121,172.071594 318.072754,174.268921 
	C272.352753,180.257141 235.147720,201.317215 206.815826,237.827637 
	C201.858658,244.215790 202.770538,248.304993 210.197952,252.358917 
	C215.915131,256.466217 219.552658,255.906586 223.558334,250.729614 
	C225.888641,247.717911 228.171753,244.650864 230.722000,241.831116 
	C250.790741,219.641663 275.321716,204.885986 304.505005,198.119095 
	C317.434021,195.121201 330.540894,193.544220 343.850372,194.971344 
	C352.886047,195.940201 361.916168,196.961029 371.006409,198.266602 
	C371.408539,199.074356 371.753021,199.574112 372.035522,200.442978 
	C371.652710,202.241104 371.331818,203.670135 371.005798,205.546921 
	C371.022491,209.026291 371.044342,212.057907 371.066193,215.089508 
	C371.044739,218.719803 371.023285,222.350082 370.615051,226.493454 
	C361.268311,225.536011 352.345551,223.754684 343.338745,222.674622 
	C332.397675,221.362595 321.574890,222.556610 310.601929,225.824432 
	C303.738068,227.972137 297.069611,229.596222 290.863983,232.287506 
	C268.676453,241.909821 251.674927,257.607697 238.833557,277.962494 
M200.479172,188.854172 
	C207.094131,183.331390 209.643143,176.232315 207.603104,167.952972 
	C205.705261,160.250641 200.462875,155.370560 192.723053,153.456543 
	C181.833954,150.763657 172.584976,157.020828 167.629333,170.190659 
	C161.058731,175.988007 159.209076,184.271698 162.690399,192.309509 
	C166.278076,200.592834 174.177109,204.863297 184.279312,203.981140 
	C191.471298,203.353104 198.241196,197.050293 200.479172,188.854172 
z"/>
<path fill="#45467E" opacity="1.000000" stroke="none" 
	d="
M370.913666,104.589630 
	C280.875092,105.048912 190.885452,105.040092 100.430618,105.105545 
	C99.965424,105.179810 99.992805,104.995926 100.004990,104.484566 
	C97.146759,81.264137 100.714844,59.134251 106.027229,37.161266 
	C111.032394,37.128510 116.037567,37.095753 121.511124,37.577991 
	C121.983673,44.726368 122.389236,51.390858 121.878151,57.984299 
	C121.375656,64.466751 124.919205,68.313774 129.446777,71.554344 
	C134.496048,75.168327 143.990082,73.117783 147.395233,68.117226 
	C157.204697,67.599358 162.338608,62.737392 163.148468,53.275818 
	C163.614105,47.835850 163.775360,42.369827 164.073624,36.915535 
	C176.395309,36.965260 188.716980,37.014984 201.508667,37.580116 
	C201.982559,44.728172 202.387466,51.391891 201.876556,57.984642 
	C201.374298,64.465660 204.917389,68.313812 209.441956,71.556625 
	C214.477951,75.165993 223.983124,73.114594 227.393951,68.121048 
	C237.582428,67.563667 242.941071,61.915104 243.168015,52.190659 
	C243.286636,47.108189 243.768784,42.034203 244.086731,36.956383 
	C256.072296,36.985779 268.057831,37.015175 280.517914,37.553772 
	C280.997772,43.895630 280.493256,49.788826 281.176300,55.541008 
	C281.685730,59.831406 282.905396,64.491745 285.263245,68.013565 
	C290.130676,75.283760 302.806824,75.033371 307.386292,68.119675 
	C318.002655,67.280602 322.960114,61.867691 323.152863,51.663692 
	C323.245575,46.756027 323.756287,41.856258 324.077698,36.952911 
	C334.727631,36.969837 345.377594,36.974506 356.027496,37.007389 
	C365.289642,37.035984 370.977356,42.590816 370.988373,51.703060 
	C371.009521,69.175850 370.974396,86.648705 370.913666,104.589630 
z"/>
<path fill="#FFC329" opacity="1.000000" stroke="none" 
	d="
M238.735626,278.289093 
	C251.674927,257.607697 268.676453,241.909821 290.863983,232.287506 
	C297.069611,229.596222 303.738068,227.972137 310.554382,226.191360 
	C306.295776,236.378937 301.676971,246.233612 296.951416,256.284088 
	C296.535400,256.795410 296.226166,257.110931 295.566162,257.554382 
	C258.171539,276.802826 239.433411,320.269440 251.133316,360.765259 
	C265.688721,411.144623 318.350342,436.137268 364.324554,420.904846 
	C365.107025,420.943665 365.555573,420.942627 366.228729,421.210419 
	C377.331665,425.009216 388.209961,428.539185 399.088287,432.069153 
	C386.719086,440.667938 372.898041,446.326477 358.249084,448.690948 
	C335.304749,452.394409 312.694336,450.667725 290.952148,441.103088 
	C276.074799,434.558350 263.026184,425.577942 252.331421,413.561584 
	C246.143982,406.609497 241.380676,398.389923 235.912598,390.375458 
	C232.535095,380.638367 228.371994,371.470276 226.066376,361.856750 
	C219.036652,332.545563 223.656006,304.733948 238.735626,278.289093 
z"/>
<path fill="#FFD54F" opacity="1.000000" stroke="none" 
	d="
M297.058167,256.088287 
	C301.676971,246.233612 306.295776,236.378937 310.962097,226.157318 
	C321.574890,222.556610 332.397675,221.362595 343.338745,222.674622 
	C352.345551,223.754684 361.268311,225.536011 370.631531,226.945145 
	C381.513062,232.206146 392.605011,236.601974 402.339020,243.048279 
	C421.256927,255.576538 434.695862,272.988281 442.957001,294.222260 
	C448.577698,308.669434 451.498474,323.648468 450.959686,339.175049 
	C450.076508,364.626801 442.016357,387.492615 426.041138,407.492371 
	C418.490631,416.944946 409.773834,425.070374 399.406921,431.927307 
	C388.209961,428.539185 377.331665,425.009216 366.472687,420.958801 
	C406.536163,406.150269 430.169800,365.355743 425.202667,325.335938 
	C419.872681,282.392426 382.287781,247.654068 339.085266,247.033936 
	C324.338715,246.822266 310.469940,250.299515 297.058167,256.088287 
z"/>
<path fill="#3B3B6B" opacity="1.000000" stroke="none" 
	d="
M105.559631,37.104759 
	C100.714844,59.134251 97.146759,81.264137 100.027817,104.394455 
	C72.885078,104.876488 45.731678,104.933220 18.578314,105.002350 
	C14.414981,105.012955 10.251796,105.080772 5.637852,105.210678 
	C5.126746,87.523582 4.799287,69.742928 5.133320,51.974705 
	C5.272922,44.548817 10.128380,36.313396 20.608479,36.928871 
	C27.398243,37.327618 34.228378,37.038975 41.512844,37.567062 
	C41.990005,45.071133 41.926727,52.067387 42.019627,59.061569 
	C42.103642,65.386810 46.972218,71.348839 53.039021,72.795227 
	C59.197006,74.263351 64.296921,72.571442 67.393082,68.130173 
	C77.578308,67.567131 83.399773,61.722847 83.793655,51.890770 
	C83.993347,46.906094 83.995071,41.913483 84.086296,36.924461 
	C91.088211,36.965725 98.090126,37.006989 105.559631,37.104759 
z"/>
<path fill="#7F7482" opacity="1.000000" stroke="none" 
	d="
M302.092285,467.106476 
	C301.782654,468.863434 301.472992,470.620392 300.691803,472.828064 
	C297.777771,474.609222 295.335266,475.939697 292.395081,477.541260 
	C294.523071,478.188171 296.059570,478.708923 297.624298,479.123016 
	C328.815247,487.377319 359.584991,486.037933 389.740875,474.538422 
	C415.363892,464.767456 436.600067,448.900879 453.499817,427.269562 
	C456.160675,423.863831 458.576263,420.003296 463.902771,420.996552 
	C469.704559,422.003937 472.516876,428.141785 468.546417,432.790436 
	C460.553772,442.148315 452.204590,451.248108 443.456177,459.902100 
	C433.097595,470.148926 420.641541,477.520081 407.543304,483.781616 
	C392.391754,491.024780 376.662659,496.447876 359.836823,497.969666 
	C349.658356,498.890289 339.375092,500.347443 329.251190,499.728027 
	C317.716980,499.022339 306.308014,496.272156 294.843597,494.416748 
	C293.878448,494.260529 292.905701,494.151398 291.375366,493.720337 
	C289.420837,492.836975 288.027374,492.253723 286.633911,491.670502 
	C286.295624,491.990143 285.957367,492.309814 285.619080,492.629486 
	C286.700531,494.719391 287.781952,496.809326 288.863403,498.899261 
	C289.427429,503.479584 287.501251,506.821594 283.125702,507.881287 
	C278.000458,509.122528 275.041046,507.020081 272.909210,501.848572 
	C270.358185,495.660126 267.722229,489.506683 265.124268,483.337555 
	C263.354919,479.136017 263.208405,475.066742 266.847137,471.137634 
	C274.642395,468.168671 281.706177,465.307190 288.773560,462.454559 
	C295.772766,459.629395 298.318756,460.522217 302.092285,467.106476 
z"/>
<path fill="#7F7482" opacity="1.000000" stroke="none" 
	d="
M499.155884,383.844604 
	C506.188873,383.850647 510.991669,389.577484 507.861420,395.815491 
	C507.064423,397.403717 505.318451,398.885895 503.657104,399.605835 
	C496.627289,402.652191 489.583618,405.769989 482.293671,408.062317 
	C479.312775,408.999664 475.694244,407.909027 472.135010,407.095276 
	C471.569977,406.311615 471.235718,406.173615 470.901428,406.035645 
	C470.901428,406.035645 470.973999,406.027100 471.080017,405.681335 
	C468.393127,398.267944 465.605377,391.198242 462.805847,384.133209 
	C459.873627,376.733124 460.922394,374.130188 468.124786,370.987000 
	C469.795929,371.304688 471.467072,371.622406 473.569031,372.280640 
	C475.139252,375.109924 476.278687,377.598694 477.726135,380.760284 
	C478.408447,378.799164 478.901123,377.590240 479.252625,376.341583 
	C485.353302,354.672333 486.574677,332.703766 482.516388,310.582855 
	C475.576965,272.757355 456.708099,242.079590 426.305511,218.538086 
	C423.086212,216.045303 420.730164,213.305176 420.998260,208.986496 
	C423.099609,202.813019 429.025116,200.791931 434.130096,204.720901 
	C448.204407,215.552948 460.621307,228.007126 470.876465,242.572464 
	C484.565796,262.015320 493.526520,283.537964 497.694275,306.817322 
	C500.456360,322.245392 501.491974,337.978394 498.991516,353.649567 
	C497.526093,362.833710 495.715210,371.962738 493.785828,381.728577 
	C492.978455,383.732269 492.444946,385.123962 491.911469,386.515625 
	C492.260193,386.849548 492.608948,387.183472 492.957672,387.517395 
	C495.023743,386.293121 497.089813,385.068878 499.155884,383.844604 
z"/>
<path fill="#807482" opacity="1.000000" stroke="none" 
	d="
M207.009949,301.197815 
	C204.562943,300.586090 202.115921,299.974335 199.214661,298.864990 
	C197.822144,296.482727 196.883865,294.598145 195.605133,292.029663 
	C194.970123,293.757843 194.529907,294.768951 194.222992,295.819000 
	C188.976105,313.769867 187.686966,332.140594 189.359985,350.642242 
	C190.557098,363.880890 193.094940,376.946960 198.788010,389.552521 
	C208.049896,414.682251 223.511871,434.898315 243.822006,451.521057 
	C247.797455,454.774811 251.996796,457.656525 253.104279,463.119843 
	C248.437286,471.225098 245.323853,471.925995 237.752609,466.341309 
	C213.400116,448.378326 195.934952,425.153625 184.934540,397.007538 
	C184.108612,394.894318 183.158676,392.829559 182.120834,390.406952 
	C180.346497,383.323425 178.512360,376.617096 177.125580,369.819489 
	C171.927750,344.341400 172.637024,318.998810 179.186508,293.817322 
	C179.684464,291.902740 179.713608,289.866241 179.958038,287.907684 
	C176.757355,287.907684 174.463043,288.072113 172.201340,287.870605 
	C168.461517,287.537415 165.431244,285.317963 165.509369,281.737091 
	C165.567184,279.087128 167.281616,275.185120 169.409561,274.100891 
	C176.930038,270.268982 184.819809,267.019257 192.852081,264.422760 
	C195.208038,263.661163 198.501770,265.800598 201.723633,267.179993 
	C205.023178,274.895355 208.030411,282.015045 210.885956,289.195007 
	C213.248978,295.136505 212.379532,297.603699 207.009949,301.197815 
z"/>
<path fill="#807582" opacity="1.000000" stroke="none" 
	d="
M371.010925,205.099152 
	C371.331818,203.670135 371.652710,202.241104 372.343872,200.289505 
	C375.261353,198.329849 377.808533,196.892776 381.329376,194.906387 
	C377.371918,193.968338 374.240570,193.226089 370.773560,192.330292 
	C346.833557,186.591782 323.263123,186.848587 299.816833,192.950119 
	C267.116516,201.459885 240.416458,219.193298 219.616028,245.803116 
	C217.103058,249.017944 214.596481,252.101425 210.005066,252.055801 
	C202.770538,248.304993 201.858658,244.215790 206.815826,237.827637 
	C235.147720,201.317215 272.352753,180.257141 318.072754,174.268921 
	C334.849121,172.071594 351.585632,173.140320 368.196625,176.272858 
	C368.991028,176.422668 369.818237,176.398773 370.871887,176.192871 
	C374.370087,176.923676 377.584808,178.106567 380.899139,178.838409 
	C382.813599,179.261154 384.743713,179.488190 384.137756,175.908112 
	C383.713074,173.398987 384.349213,169.972382 385.888733,168.069855 
	C387.530304,166.041122 390.909607,164.131897 393.313263,164.369156 
	C395.705383,164.605255 398.799805,167.112885 399.891022,169.424698 
	C403.515076,177.102356 406.671326,185.042786 409.331207,193.105377 
	C410.034851,195.238312 408.307800,198.173126 407.005249,200.966736 
	C399.323120,204.102158 392.341797,207.032822 385.339722,209.913162 
	C377.282745,213.227448 375.284149,212.538635 371.010925,205.099152 
z"/>
<path fill="#8E8A81" opacity="1.000000" stroke="none" 
	d="
M84.051895,36.462036 
	C83.995071,41.913483 83.993347,46.906094 83.793655,51.890770 
	C83.399773,61.722847 77.578308,67.567131 67.026024,68.056839 
	C57.093044,65.339699 53.205654,60.208572 53.120327,50.777531 
	C53.078556,46.160645 52.970371,41.544361 52.892246,36.927803 
	C53.226368,30.011803 52.745346,22.930588 54.104954,16.222431 
	C55.733276,8.188457 62.859455,4.762773 72.312622,5.996817 
	C78.314957,6.780379 83.875664,13.629138 83.986038,20.516174 
	C84.068741,25.676165 84.012100,30.838387 84.051895,36.462036 
z"/>
<path fill="#8F8B81" opacity="1.000000" stroke="none" 
	d="
M164.044312,36.453392 
	C163.775360,42.369827 163.614105,47.835850 163.148468,53.275818 
	C162.338608,62.737392 157.204697,67.599358 147.026733,68.050774 
	C137.111938,65.382706 133.158752,60.187092 133.082870,50.782967 
	C133.045578,46.162132 132.957901,41.541706 132.893021,36.921093 
	C132.928391,31.430630 132.975266,25.940208 132.996384,20.449690 
	C133.026428,12.633476 139.191040,6.129743 146.714066,5.999341 
	C157.054153,5.820107 163.655151,11.098166 163.966309,20.016151 
	C164.151886,25.335278 164.009796,30.665834 164.044312,36.453392 
z"/>
<path fill="#8F8B81" opacity="1.000000" stroke="none" 
	d="
M244.051926,36.492874 
	C243.768784,42.034203 243.286636,47.108189 243.168015,52.190659 
	C242.941071,61.915104 237.582428,67.563667 227.024872,68.054405 
	C217.007507,65.370934 213.138855,60.301105 213.062500,50.804565 
	C213.025299,46.176975 212.946808,41.549709 212.887009,36.922298 
	C212.924423,31.274755 212.951019,25.627115 213.002167,19.979696 
	C213.058777,13.729234 218.249557,7.277752 224.193054,6.040790 
	C231.143402,4.594284 239.363022,7.540303 241.459610,13.241034 
	C243.106339,17.718576 243.366211,22.744635 243.941742,27.562910 
	C244.274445,30.348324 244.011810,33.204845 244.051926,36.492874 
z"/>
<path fill="#8F8B81" opacity="1.000000" stroke="none" 
	d="
M324.046387,36.489578 
	C323.756287,41.856258 323.245575,46.756027 323.152863,51.663692 
	C322.960114,61.867691 318.002655,67.280602 307.016907,68.055321 
	C296.963501,65.363129 293.115967,60.330750 293.044067,50.815712 
	C293.009064,46.184902 292.937378,41.554367 292.882263,36.923710 
	C292.921417,31.274733 292.946228,25.625610 293.003540,19.976816 
	C293.067169,13.703127 298.224640,7.015061 304.225006,6.105950 
	C311.317688,5.031343 320.181885,6.908649 321.816925,14.124717 
	C323.426147,21.226625 323.351074,28.710161 324.046387,36.489578 
z"/>
<path fill="#DEDDDF" opacity="1.000000" stroke="none" 
	d="
M420.652863,209.106506 
	C420.730164,213.305176 423.086212,216.045303 426.305511,218.538086 
	C456.708099,242.079590 475.576965,272.757355 482.516388,310.582855 
	C486.574677,332.703766 485.353302,354.672333 479.252625,376.341583 
	C478.901123,377.590240 478.408447,378.799164 477.726135,380.760284 
	C476.278687,377.598694 475.139252,375.109924 473.940247,372.255981 
	C477.591034,358.155945 478.382965,344.152191 478.032623,329.996155 
	C477.606445,312.777588 473.586731,296.367065 466.869995,280.653839 
	C459.068481,262.402802 447.831360,246.412674 433.285645,232.853622 
	C429.121490,228.971970 424.453888,225.628677 420.310333,221.727142 
	C415.753143,217.436096 415.911438,213.883224 420.652863,209.106506 
z"/>
<path fill="#DEDDDF" opacity="1.000000" stroke="none" 
	d="
M463.795105,420.655029 
	C458.576263,420.003296 456.160675,423.863831 453.499817,427.269562 
	C436.600067,448.900879 415.363892,464.767456 389.740875,474.538422 
	C359.584991,486.037933 328.815247,487.377319 297.624298,479.123016 
	C296.059570,478.708923 294.523071,478.188171 292.395081,477.541260 
	C295.335266,475.939697 297.777771,474.609222 300.546082,473.190918 
	C307.620331,474.400848 314.326599,476.027557 321.129608,476.899292 
	C327.313324,477.691620 333.608429,478.031799 339.843536,477.926453 
	C357.661957,477.625488 374.809021,473.893219 391.243378,466.962921 
	C406.090057,460.702209 419.723755,452.452087 431.234985,441.140503 
	C437.915100,434.576202 443.928833,427.327026 450.141846,420.297119 
	C453.179840,416.859650 459.113007,414.826233 463.795105,420.655029 
z"/>
<path fill="#DFDDDF" opacity="1.000000" stroke="none" 
	d="
M253.436234,462.947205 
	C251.996796,457.656525 247.797455,454.774811 243.822006,451.521057 
	C223.511871,434.898315 208.049896,414.682251 199.230774,389.524567 
	C201.077728,389.086151 202.539856,389.047363 204.001953,389.008606 
	C204.512955,389.287994 205.023956,389.567383 205.798813,389.969238 
	C210.723953,402.466217 216.972946,414.097839 225.707642,423.917755 
	C233.942337,433.175568 243.389313,441.368042 252.456543,449.865295 
	C255.615845,452.825989 258.045593,457.979126 253.436234,462.947205 
z"/>
<path fill="#3C3C6C" opacity="1.000000" stroke="none" 
	d="
M292.430237,36.949501 
	C292.937378,41.554367 293.009064,46.184902 293.044067,50.815712 
	C293.115967,60.330750 296.963501,65.363129 306.606445,68.094978 
	C302.806824,75.033371 290.130676,75.283760 285.263245,68.013565 
	C282.905396,64.491745 281.685730,59.831406 281.176300,55.541008 
	C280.493256,49.788826 280.997772,43.895630 280.982178,37.605606 
	C284.640686,37.090584 288.309418,37.032936 292.430237,36.949501 
z"/>
<path fill="#3C3C6B" opacity="1.000000" stroke="none" 
	d="
M132.442474,36.947472 
	C132.957901,41.541706 133.045578,46.162132 133.082870,50.782967 
	C133.158752,60.187092 137.111938,65.382706 146.610565,68.088898 
	C143.990082,73.117783 134.496048,75.168327 129.446777,71.554344 
	C124.919205,68.313774 121.375656,64.466751 121.878151,57.984299 
	C122.389236,51.390858 121.983673,44.726368 121.972176,37.638321 
	C125.307198,37.113724 128.649551,37.043785 132.442474,36.947472 
z"/>
<path fill="#3C3C6B" opacity="1.000000" stroke="none" 
	d="
M212.436859,36.948090 
	C212.946808,41.549709 213.025299,46.176975 213.062500,50.804565 
	C213.138855,60.301105 217.007507,65.370934 226.608841,68.093887 
	C223.983124,73.114594 214.477951,75.165993 209.441956,71.556625 
	C204.917389,68.313812 201.374298,64.465660 201.876556,57.984642 
	C202.387466,51.391891 201.982559,44.728172 201.971466,37.641106 
	C205.305084,37.115749 208.645905,37.044815 212.436859,36.948090 
z"/>
<path fill="#33335B" opacity="1.000000" stroke="none" 
	d="
M52.441605,36.950981 
	C52.970371,41.544361 53.078556,46.160645 53.120327,50.777531 
	C53.205654,60.208572 57.093044,65.339699 66.610069,68.097900 
	C64.296921,72.571442 59.197006,74.263351 53.039021,72.795227 
	C46.972218,71.348839 42.103642,65.386810 42.019627,59.061569 
	C41.926727,52.067387 41.990005,45.071133 41.976662,37.620827 
	C45.309025,37.101967 48.649994,37.038063 52.441605,36.950981 
z"/>
<path fill="#DFDDE0" opacity="1.000000" stroke="none" 
	d="
M302.427002,466.925659 
	C298.318756,460.522217 295.772766,459.629395 288.773560,462.454559 
	C281.706177,465.307190 274.642395,468.168671 267.190247,471.006409 
	C266.933167,467.765381 268.469208,465.878723 271.603149,464.694855 
	C278.776337,461.985229 285.934875,459.167572 292.848846,455.868774 
	C296.546753,454.104431 299.633850,455.470215 301.636658,457.539246 
	C303.815552,459.790161 305.341187,463.326569 302.427002,466.925659 
z"/>
<path fill="#DEDDDF" opacity="1.000000" stroke="none" 
	d="
M467.982819,370.620850 
	C460.922394,374.130188 459.873627,376.733124 462.805847,384.133209 
	C465.605377,391.198242 468.393127,398.267944 471.065796,405.714996 
	C468.976318,404.837036 466.054260,404.031219 465.206512,402.242340 
	C461.925690,395.319580 458.968597,388.192200 456.620972,380.905792 
	C455.787659,378.319458 456.149567,374.527740 457.534210,372.232391 
	C459.817841,368.446777 463.968536,368.779877 467.982819,370.620850 
z"/>
<path fill="#DEDCDF" opacity="1.000000" stroke="none" 
	d="
M371.005798,205.546921 
	C375.284149,212.538635 377.282745,213.227448 385.339722,209.913162 
	C392.341797,207.032822 399.323120,204.102158 406.662079,201.098267 
	C405.287476,203.343918 404.061523,206.684143 401.746735,207.835892 
	C395.211670,211.087524 388.349609,213.835739 381.365845,215.957413 
	C378.510345,216.824905 375.010376,215.570969 371.434875,215.185822 
	C371.044342,212.057907 371.022491,209.026291 371.005798,205.546921 
z"/>
<path fill="#DAD5DB" opacity="1.000000" stroke="none" 
	d="
M498.971619,383.534851 
	C497.089813,385.068878 495.023743,386.293121 492.957672,387.517395 
	C492.608948,387.183472 492.260193,386.849548 491.911469,386.515625 
	C492.444946,385.123962 492.978455,383.732269 493.800232,382.117188 
	C495.654785,382.337555 497.221069,382.781311 498.971619,383.534851 
z"/>
<path fill="#D7D6D8" opacity="1.000000" stroke="none" 
	d="
M289.023041,498.594055 
	C287.781952,496.809326 286.700531,494.719391 285.619080,492.629486 
	C285.957367,492.309814 286.295624,491.990143 286.633911,491.670502 
	C288.027374,492.253723 289.420837,492.836975 290.970490,493.766663 
	C290.478668,495.505035 289.830688,496.896912 289.023041,498.594055 
z"/>
<path fill="#DEDDDF" opacity="1.000000" stroke="none" 
	d="
M470.977417,406.302887 
	C471.235718,406.173615 471.569977,406.311615 471.951996,406.753662 
	C471.684296,406.895142 471.368835,406.732635 470.977417,406.302887 
z"/>
<path fill="#46A2FE" opacity="1.000000" stroke="none" 
	d="
M31.099560,169.022415 
	C35.970924,156.680328 44.769039,150.901886 55.216705,153.412262 
	C62.923325,155.264038 68.139343,160.006760 70.231735,167.747284 
	C72.504517,176.155060 69.740631,183.040878 62.929569,188.991425 
	C62.204304,189.456329 62.018017,189.688477 61.918716,189.990463 
	C61.918716,189.990463 61.985950,189.993805 61.617378,190.050629 
	C56.484810,190.887115 51.524441,192.912079 46.995995,192.197983 
	C36.188873,190.493790 30.895700,182.031448 31.099560,169.022415 
z"/>
<path fill="#45A2FE" opacity="1.000000" stroke="none" 
	d="
M109.860138,155.348434 
	C116.510880,152.515518 122.951469,151.889526 129.263275,155.410477 
	C141.761810,162.382599 143.673309,179.938461 130.794205,189.562897 
	C129.146179,190.570679 128.002701,191.215317 126.454269,191.896011 
	C122.619522,192.113541 119.059593,192.976852 115.783730,192.351685 
	C104.913437,190.277130 99.766724,182.420822 99.868134,169.031265 
	C101.546333,163.403244 104.467064,158.681412 109.860138,155.348434 
z"/>
<path fill="#FF6473" opacity="1.000000" stroke="none" 
	d="
M99.785919,318.926453 
	C103.910934,306.834198 112.576767,300.512848 122.512032,302.410919 
	C130.746719,303.984161 136.415863,308.597412 138.786743,316.763306 
	C141.367859,325.653351 138.168930,332.701996 130.885529,338.886688 
	C122.619064,343.336761 115.023064,343.378387 107.837379,338.193054 
	C101.297112,333.473480 99.302910,326.673553 99.785919,318.926453 
z"/>
<path fill="#FF6473" opacity="1.000000" stroke="none" 
	d="
M30.829329,319.926300 
	C32.821602,312.067963 36.934799,305.903687 44.940563,303.232513 
	C53.403893,300.408661 62.862324,303.863037 67.600563,311.216949 
	C72.723801,319.168396 72.055504,328.498322 65.806778,335.602783 
	C64.824043,336.720093 63.674786,337.690948 61.987015,339.042572 
	C58.562912,340.239838 55.809788,341.573486 52.935837,341.928253 
	C42.171230,343.257019 30.481091,335.254456 30.829329,319.926300 
z"/>
<path fill="#45A2FE" opacity="1.000000" stroke="none" 
	d="
M99.847878,244.011536 
	C104.170708,231.052216 114.442741,224.932800 125.755547,228.566589 
	C140.610825,233.338257 145.111542,253.103485 130.921539,264.112854 
	C126.069046,265.430603 121.721863,267.459900 117.543633,267.157166 
	C105.941521,266.316620 99.805824,257.794037 99.847878,244.011536 
z"/>
<path fill="#45A2FE" opacity="1.000000" stroke="none" 
	d="
M31.049921,243.969955 
	C33.678413,235.628464 38.518982,229.460251 47.641109,227.993179 
	C56.721668,226.532776 64.949623,230.797867 68.857613,238.619553 
	C73.112755,247.136047 71.168961,255.792236 62.868385,263.702332 
	C62.232567,264.359039 62.034851,264.653534 61.837135,264.948029 
	C61.837135,264.948029 61.933243,264.840942 61.511864,264.878876 
	C57.240456,265.752655 53.344845,267.460663 49.548862,267.262299 
	C37.733372,266.644775 31.028715,257.841431 31.049921,243.969955 
z"/>
<path fill="#FFB88D" opacity="1.000000" stroke="none" 
	d="
M99.461571,319.011322 
	C99.302910,326.673553 101.297112,333.473480 107.837379,338.193054 
	C115.023064,343.378387 122.619064,343.336761 130.674622,339.144897 
	C129.069717,349.133667 121.470879,352.555115 112.840843,353.738403 
	C105.669296,354.721680 96.577087,348.407593 93.851692,340.993835 
	C90.803444,332.701813 92.924843,323.912933 99.461571,319.011322 
z"/>
<path fill="#FDB98F" opacity="1.000000" stroke="none" 
	d="
M99.569168,244.186279 
	C99.805824,257.794037 105.941521,266.316620 117.543633,267.157166 
	C121.721863,267.459900 126.069046,265.430603 130.674774,264.354187 
	C129.175354,272.852295 121.789139,278.867676 112.893837,278.997070 
	C103.974991,279.126831 94.922462,272.491028 93.106461,264.435028 
	C91.335182,256.577454 92.754799,249.673798 99.569168,244.186279 
z"/>
<path fill="#FDB98F" opacity="1.000000" stroke="none" 
	d="
M30.748114,244.134140 
	C31.028715,257.841431 37.733372,266.644775 49.548862,267.262299 
	C53.344845,267.460663 57.240456,265.752655 61.456112,264.833435 
	C60.974865,273.463287 49.610531,280.834045 39.999657,278.753754 
	C31.962505,277.014099 26.367620,272.011810 24.453835,264.179657 
	C22.641375,256.762207 24.022526,249.587845 30.748114,244.134140 
z"/>
<path fill="#FDB98F" opacity="1.000000" stroke="none" 
	d="
M30.790623,169.173035 
	C30.895700,182.031448 36.188873,190.493790 46.995995,192.197983 
	C51.524441,192.912079 56.484810,190.887115 61.610271,190.017731 
	C61.177826,202.362976 42.953903,208.275208 32.857166,201.137100 
	C21.494722,193.104156 20.624594,179.258255 30.790623,169.173035 
z"/>
<path fill="#FCB88D" opacity="1.000000" stroke="none" 
	d="
M203.945831,388.635437 
	C202.539856,389.047363 201.077728,389.086151 199.172852,389.152893 
	C193.094940,376.946960 190.557098,363.880890 189.359985,350.642242 
	C187.686966,332.140594 188.976105,313.769867 194.222992,295.819000 
	C194.529907,294.768951 194.970123,293.757843 195.605133,292.029663 
	C196.883865,294.598145 197.822144,296.482727 198.886841,298.692261 
	C197.344208,310.119537 194.806702,321.174561 194.199005,332.334686 
	C193.150665,351.587097 197.203598,370.215485 203.945831,388.635437 
z"/>
<path fill="#FFB98D" opacity="1.000000" stroke="none" 
	d="
M30.499378,320.003052 
	C30.481091,335.254456 42.171230,343.257019 52.935837,341.928253 
	C55.809788,341.573486 58.562912,340.239838 61.726074,339.257019 
	C60.747452,348.947540 50.167229,355.262390 38.963352,352.956024 
	C26.490911,350.388519 19.548851,334.560547 26.259190,323.748291 
	C27.169529,322.281494 28.847109,321.290894 30.499378,320.003052 
z"/>
<path fill="#FDB98E" opacity="1.000000" stroke="none" 
	d="
M99.585724,169.201981 
	C99.766724,182.420822 104.913437,190.277130 115.783730,192.351685 
	C119.059593,192.976852 122.619522,192.113541 126.731453,192.043182 
	C127.975723,192.440567 128.537857,192.726852 129.100006,193.013138 
	C129.098099,193.754410 129.096191,194.495682 129.105011,195.606781 
	C124.436310,199.868835 120.252678,204.312927 113.230316,204.103027 
	C103.520714,203.812836 97.259293,200.078201 93.754608,191.457916 
	C90.621170,183.750778 92.622009,175.786957 99.585724,169.201981 
z"/>
<path fill="#FAB78E" opacity="1.000000" stroke="none" 
	d="
M207.324036,301.406830 
	C212.379532,297.603699 213.248978,295.136505 210.885956,289.195007 
	C208.030411,282.015045 205.023178,274.895355 202.014923,267.390167 
	C203.885422,268.598816 206.632721,269.777039 207.609741,271.807220 
	C210.693359,278.214752 213.128479,284.935547 215.786530,291.546417 
	C218.693314,298.775848 215.595596,302.591248 207.324036,301.406830 
z"/>
<path fill="#FDB98F" opacity="1.000000" stroke="none" 
	d="
M62.111862,189.895172 
	C62.018017,189.688477 62.204304,189.456329 62.699661,189.252167 
	C62.759689,189.452377 62.554111,189.648880 62.111862,189.895172 
z"/>
<path fill="#FDB98F" opacity="1.000000" stroke="none" 
	d="
M62.071320,264.829407 
	C62.034851,264.653534 62.232567,264.359039 62.699692,263.988403 
	C62.747906,264.178467 62.526707,264.444641 62.071320,264.829407 
z"/>
<path fill="#45A3FE" opacity="1.000000" stroke="none" 
	d="
M168.279083,169.847290 
	C172.584976,157.020828 181.833954,150.763657 192.723053,153.456543 
	C200.462875,155.370560 205.705261,160.250641 207.603104,167.952972 
	C209.643143,176.232315 207.094131,183.331390 199.920074,189.232910 
	C194.643967,192.394333 189.665298,193.728516 184.181290,192.439209 
	C173.821243,190.003479 168.353943,182.251144 168.279083,169.847290 
z"/>
<path fill="#FBC9A9" opacity="1.000000" stroke="none" 
	d="
M210.197952,252.358917 
	C214.596481,252.101425 217.103058,249.017944 219.616028,245.803116 
	C240.416458,219.193298 267.116516,201.459885 299.816833,192.950119 
	C323.263123,186.848587 346.833557,186.591782 370.746216,192.794113 
	C371.019257,194.927200 370.984009,196.442917 370.948761,197.958618 
	C361.916168,196.961029 352.886047,195.940201 343.850372,194.971344 
	C330.540894,193.544220 317.434021,195.121201 304.505005,198.119095 
	C275.321716,204.885986 250.790741,219.641663 230.722000,241.831116 
	C228.171753,244.650864 225.888641,247.717911 223.558334,250.729614 
	C219.552658,255.906586 215.915131,256.466217 210.197952,252.358917 
z"/>
<path fill="#FCCBAB" opacity="1.000000" stroke="none" 
	d="
M167.954208,170.018982 
	C168.353943,182.251144 173.821243,190.003479 184.181290,192.439209 
	C189.665298,193.728516 194.643967,192.394333 199.674438,189.483994 
	C198.241196,197.050293 191.471298,203.353104 184.279312,203.981140 
	C174.177109,204.863297 166.278076,200.592834 162.690399,192.309509 
	C159.209076,184.271698 161.058731,175.988007 167.954208,170.018982 
z"/>
<path fill="#DAD9DC" opacity="1.000000" stroke="none" 
	d="
M371.006409,198.266617 
	C370.984009,196.442917 371.019257,194.927200 371.081848,192.947662 
	C374.240570,193.226089 377.371918,193.968338 381.329376,194.906387 
	C377.808533,196.892776 375.261353,198.329849 372.405823,199.920395 
	C371.753021,199.574112 371.408539,199.074356 371.006409,198.266617 
z"/>
<path fill="#FDCAAA" opacity="1.000000" stroke="none" 
	d="
M129.432281,192.912598 
	C128.537857,192.726852 127.975723,192.440567 127.136398,192.007111 
	C128.002701,191.215317 129.146179,190.570679 130.611206,189.831070 
	C130.543365,190.761414 130.153976,191.786728 129.432281,192.912598 
z"/>
<path fill="#C9F0FF" opacity="1.000000" stroke="none" 
	d="
M296.951416,256.284088 
	C310.469940,250.299515 324.338715,246.822266 339.085266,247.033936 
	C382.287781,247.654068 419.872681,282.392426 425.202667,325.335938 
	C430.169800,365.355743 406.536163,406.150269 366.248047,420.689941 
	C365.555573,420.942627 365.107025,420.943665 364.090454,420.668274 
	C344.817749,410.382111 328.750000,397.271179 316.397491,379.903534 
	C323.980713,372.431061 331.221527,365.069946 338.698486,357.957062 
	C340.006012,356.713196 342.304199,355.942261 344.148438,355.935516 
	C350.135651,355.913635 356.029968,352.296814 358.802063,346.400757 
	C361.231995,341.232483 359.783844,334.122864 355.983337,329.598999 
	C354.466064,327.792969 353.176544,325.150879 353.128998,322.861389 
	C352.859375,309.879669 353.061829,296.889008 352.970306,283.902344 
	C352.922516,277.119965 350.285919,274.411011 343.567932,273.848877 
	C340.569031,270.991821 337.680389,268.846405 333.601074,270.766449 
	C329.706757,272.599426 328.970856,275.966156 328.997833,279.874512 
	C329.097321,294.292572 329.086090,308.711395 328.908447,323.394958 
	C322.490997,327.848419 321.174927,333.913055 321.813324,341.019684 
	C315.358215,347.127563 309.202271,353.057556 302.978668,358.631409 
	C294.232208,339.674500 289.626221,320.289368 289.800842,299.584167 
	C289.922546,285.151855 292.488708,271.275543 295.916931,257.426453 
	C296.226166,257.110931 296.535400,256.795410 296.951416,256.284088 
z"/>
<path fill="#9BE7FC" opacity="1.000000" stroke="none" 
	d="
M295.566162,257.554382 
	C292.488708,271.275543 289.922546,285.151855 289.800842,299.584167 
	C289.626221,320.289368 294.232208,339.674500 302.811768,358.923615 
	C299.943176,362.406219 297.210144,365.277130 294.393646,368.063660 
	C291.855530,370.574829 289.543793,373.100616 290.867279,377.111023 
	C292.291656,381.427399 295.691620,382.624115 299.953369,383.147095 
	C304.881561,387.983673 307.298523,388.019867 311.912628,383.656219 
	C313.233276,382.407227 314.587524,381.193726 315.979004,379.997131 
	C316.031677,380.030273 316.135284,380.099213 316.135284,380.099213 
	C328.750000,397.271179 344.817749,410.382111 363.756531,420.628418 
	C318.350342,436.137268 265.688721,411.144623 251.133316,360.765259 
	C239.433411,320.269440 258.171539,276.802826 295.566162,257.554382 
z"/>
<path fill="#9AE6FC" opacity="1.000000" stroke="none" 
	d="
M343.846252,274.036194 
	C350.285919,274.411011 352.922516,277.119965 352.970306,283.902344 
	C353.061829,296.889008 352.859375,309.879669 353.128998,322.861389 
	C353.176544,325.150879 354.466064,327.792969 355.983337,329.598999 
	C359.783844,334.122864 361.231995,341.232483 358.802063,346.400757 
	C356.029968,352.296814 350.135651,355.913635 344.148438,355.935516 
	C342.304199,355.942261 340.006012,356.713196 338.698486,357.957062 
	C331.221527,365.069946 323.980713,372.431061 316.397491,379.903534 
	C316.135284,380.099213 316.031677,380.030273 315.833191,379.706451 
	C314.089813,377.255249 312.544983,375.127869 311.159607,372.709167 
	C318.294067,365.241364 325.269043,358.064911 332.676086,350.910858 
	C338.964111,351.555695 344.321167,350.711029 348.207764,345.691742 
	C354.119659,338.057068 352.649078,330.166016 344.016083,322.545410 
	C343.965759,306.062653 343.906006,290.049438 343.846252,274.036194 
z"/>
<path fill="#C8CACE" opacity="1.000000" stroke="none" 
	d="
M343.567932,273.848877 
	C343.906006,290.049438 343.965759,306.062653 343.640808,322.482605 
	C338.500671,320.487427 333.799652,321.283600 329.116486,323.129913 
	C329.086090,308.711395 329.097321,294.292572 328.997833,279.874512 
	C328.970856,275.966156 329.706757,272.599426 333.601074,270.766449 
	C337.680389,268.846405 340.569031,270.991821 343.567932,273.848877 
z"/>
<path fill="#45A3FF" opacity="1.000000" stroke="none" 
	d="
M328.908447,323.394958 
	C333.799652,321.283600 338.500671,320.487427 343.631348,322.952148 
	C352.649078,330.166016 354.119659,338.057068 348.207764,345.691742 
	C344.321167,350.711029 338.964111,351.555695 332.404968,350.689758 
	C328.505371,347.244781 325.308929,344.043274 322.112488,340.841797 
	C321.174927,333.913055 322.490997,327.848419 328.908447,323.394958 
z"/>
<path fill="#C7C9CE" opacity="1.000000" stroke="none" 
	d="
M321.813324,341.019684 
	C325.308929,344.043274 328.505371,347.244781 331.972931,350.667358 
	C325.269043,358.064911 318.294067,365.241364 310.865417,372.863586 
	C306.855652,376.485901 303.299500,379.662415 299.743317,382.838928 
	C295.691620,382.624115 292.291656,381.427399 290.867279,377.111023 
	C289.543793,373.100616 291.855530,370.574829 294.393646,368.063660 
	C297.210144,365.277130 299.943176,362.406219 302.879425,359.279785 
	C309.202271,353.057556 315.358215,347.127563 321.813324,341.019684 
z"/>
<path fill="#67DCFB" opacity="1.000000" stroke="none" 
	d="
M299.953369,383.147095 
	C303.299500,379.662415 306.855652,376.485901 310.705963,373.154938 
	C312.544983,375.127869 314.089813,377.255249 315.780518,379.673279 
	C314.587524,381.193726 313.233276,382.407227 311.912628,383.656219 
	C307.298523,388.019867 304.881561,387.983673 299.953369,383.147095 
z"/>
</svg>